G04 EAGLE Gerber RS-274X export*
G75*
%MOMM*%
%FSLAX34Y34*%
%LPD*%
%INBottom Copper*%
%IPPOS*%
%AMOC8*
5,1,8,0,0,1.08239X$1,22.5*%
G01*
%ADD10C,1.219200*%
%ADD11C,1.524000*%
%ADD12P,5.223614X8X112.500000*%
%ADD13P,1.319650X8X22.500000*%
%ADD14C,2.400300*%
%ADD15C,2.100000*%
%ADD16R,1.371600X1.371600*%
%ADD17C,1.371600*%
%ADD18R,2.085000X2.085000*%
%ADD19C,2.085000*%
%ADD20C,1.981200*%
%ADD21C,0.825000*%
%ADD22C,0.508000*%
%ADD23C,0.550000*%
%ADD24C,0.304800*%
%ADD25C,0.500000*%
%ADD26C,0.152400*%
%ADD27C,0.675000*%
%ADD28C,0.406400*%
%ADD29C,0.600000*%
%ADD30C,0.254000*%


D10*
X749300Y463296D02*
X749300Y451104D01*
X749300Y387096D02*
X749300Y374904D01*
X723900Y374904D02*
X723900Y387096D01*
X723900Y451104D02*
X723900Y463296D01*
D11*
X45720Y482600D02*
X30480Y482600D01*
X30480Y508000D02*
X45720Y508000D01*
X45720Y533400D02*
X30480Y533400D01*
D12*
X58928Y876300D03*
X88900Y926338D03*
X28956Y926338D03*
D13*
X584200Y482600D03*
X685800Y482600D03*
D14*
X291402Y482600D02*
X267399Y482600D01*
X368999Y482600D02*
X393002Y482600D01*
D15*
X787400Y812800D03*
X787400Y887800D03*
D16*
X647700Y914400D03*
D17*
X647700Y859536D03*
D11*
X198120Y901700D02*
X182880Y901700D01*
X182880Y927100D02*
X198120Y927100D01*
X198120Y952500D02*
X182880Y952500D01*
D18*
X444500Y863600D03*
D19*
X469900Y863600D03*
X495300Y863600D03*
D11*
X363220Y901700D02*
X347980Y901700D01*
X347980Y927100D02*
X363220Y927100D01*
X363220Y952500D02*
X347980Y952500D01*
X96520Y292300D02*
X81280Y292300D01*
X81280Y317300D02*
X96520Y317300D01*
X394900Y83820D02*
X394900Y68580D01*
X419900Y68580D02*
X419900Y83820D01*
X519900Y83820D02*
X519900Y68580D01*
X444900Y68580D02*
X444900Y83820D01*
X469900Y83820D02*
X469900Y68580D01*
X494900Y68580D02*
X494900Y83820D01*
X544900Y83820D02*
X544900Y68580D01*
X569900Y68580D02*
X569900Y83820D01*
X369900Y83820D02*
X369900Y68580D01*
X96520Y152600D02*
X81280Y152600D01*
X81280Y127600D02*
X96520Y127600D01*
X96520Y177600D02*
X81280Y177600D01*
X81280Y202600D02*
X96520Y202600D01*
X228600Y83820D02*
X228600Y68580D01*
X178600Y68580D02*
X178600Y83820D01*
X203600Y83820D02*
X203600Y68580D01*
X253600Y68580D02*
X253600Y83820D01*
X278600Y83820D02*
X278600Y68580D01*
X338020Y420370D02*
X338020Y435610D01*
X413020Y435610D02*
X413020Y420370D01*
X388020Y420370D02*
X388020Y435610D01*
X363020Y435610D02*
X363020Y420370D01*
X313020Y420370D02*
X313020Y435610D01*
X288020Y435610D02*
X288020Y420370D01*
D20*
X48006Y748284D02*
X28194Y748284D01*
X28194Y697992D02*
X48006Y697992D01*
X48006Y648208D02*
X28194Y648208D01*
X28194Y597916D02*
X48006Y597916D01*
D11*
X513080Y747830D02*
X528320Y747830D01*
X528320Y722830D02*
X513080Y722830D01*
D21*
X316230Y662940D03*
D22*
X316230Y675640D01*
X306070Y685800D02*
X292100Y685800D01*
X306070Y685800D02*
X316230Y675640D01*
D21*
X292100Y685800D03*
D23*
X643890Y650240D03*
X603250Y629920D03*
D24*
X609600Y629920D01*
X629920Y650240D02*
X643890Y650240D01*
X629920Y650240D02*
X609600Y629920D01*
D25*
X101600Y635000D03*
D26*
X101600Y546100D01*
X114300Y533400D01*
D25*
X114300Y533400D03*
D23*
X317500Y635000D03*
D24*
X317500Y661670D01*
X316230Y662940D01*
D23*
X203200Y685800D03*
D26*
X205740Y688340D01*
X214630Y688340D01*
X216535Y686435D01*
X227330Y675640D01*
X227330Y623570D01*
X226060Y622300D01*
X220980Y622300D01*
D23*
X220980Y622300D03*
X195580Y783590D03*
D24*
X195580Y769620D01*
X208280Y694690D02*
X216535Y686435D01*
X208280Y756920D02*
X195580Y769620D01*
X208280Y756920D02*
X208280Y744220D01*
X208280Y694690D01*
D23*
X208280Y744220D03*
X355600Y330200D03*
D24*
X368300Y342900D01*
X393700Y342900D01*
D23*
X393700Y342900D03*
X292100Y317500D03*
D24*
X279400Y330200D01*
X266700Y330200D01*
D23*
X266700Y330200D03*
D21*
X660400Y508000D03*
D27*
X655320Y439420D03*
D28*
X637540Y457200D01*
X637540Y464820D01*
X637540Y472440D01*
X660400Y495300D02*
X660400Y508000D01*
X660400Y495300D02*
X637540Y472440D01*
X637540Y464820D02*
X504190Y464820D01*
X492760Y453390D01*
D27*
X492760Y453390D03*
D26*
X254000Y76600D02*
X253600Y76200D01*
D24*
X254000Y76600D02*
X254000Y88900D01*
X304800Y139700D02*
X304800Y334010D01*
X351790Y381000D01*
X430530Y381000D01*
X492760Y443230D01*
X492760Y453390D01*
X304800Y139700D02*
X254000Y88900D01*
X253600Y69850D02*
X266300Y57150D01*
X253600Y69850D02*
X253600Y76200D01*
X358470Y57150D02*
X369900Y68580D01*
X369900Y76200D01*
X358470Y57150D02*
X266300Y57150D01*
D27*
X217170Y288290D03*
D24*
X233680Y304800D01*
X266700Y304800D01*
D27*
X266700Y304800D03*
D25*
X266700Y292100D03*
D26*
X178600Y104940D02*
X178600Y76200D01*
X178600Y104940D02*
X196850Y123190D01*
X248120Y123190D01*
X266700Y218440D02*
X275590Y227330D01*
X275590Y262890D01*
X266700Y271780D02*
X266700Y292100D01*
X266700Y141770D02*
X248120Y123190D01*
X266700Y141770D02*
X266700Y218440D01*
X275590Y262890D02*
X266700Y271780D01*
D25*
X279400Y266700D03*
D26*
X213360Y119380D02*
X203200Y109220D01*
X203200Y76600D01*
X203600Y76200D01*
X279400Y224790D02*
X279400Y266700D01*
X279400Y224790D02*
X270510Y215900D01*
X270510Y139700D01*
X250190Y119380D01*
X213360Y119380D01*
D25*
X292100Y228600D03*
D26*
X228600Y106680D02*
X228600Y76200D01*
X228600Y106680D02*
X237490Y115570D01*
X251460Y115570D01*
X275590Y139700D01*
X275590Y212090D02*
X292100Y228600D01*
X275590Y212090D02*
X275590Y139700D01*
D25*
X146050Y750570D03*
D26*
X146050Y628650D01*
X190500Y584200D02*
X228600Y584200D01*
X190500Y584200D02*
X146050Y628650D01*
D25*
X228600Y584200D03*
X241300Y520700D03*
D26*
X241300Y431800D01*
X203200Y393700D01*
X203200Y279400D01*
X215900Y266700D01*
D25*
X215900Y266700D03*
X203200Y177800D03*
D26*
X193040Y187960D01*
X193040Y304800D01*
D23*
X88900Y368300D03*
D26*
X142240Y355600D02*
X193040Y304800D01*
X142240Y355600D02*
X101600Y355600D01*
X88900Y368300D01*
X445770Y121920D02*
X445770Y77070D01*
X444900Y76200D01*
X381000Y186690D02*
X381000Y287020D01*
X381000Y186690D02*
X445770Y121920D01*
D25*
X381000Y287020D03*
D26*
X469900Y106680D02*
X469900Y76200D01*
X387350Y189230D02*
X387350Y306070D01*
X387350Y189230D02*
X469900Y106680D01*
D25*
X387350Y306070D03*
D26*
X514350Y97790D02*
X514350Y81750D01*
X519900Y76200D01*
X514350Y97790D02*
X393700Y218440D01*
X393700Y228600D01*
D25*
X393700Y228600D03*
D26*
X495300Y76600D02*
X494900Y76200D01*
X495300Y76600D02*
X495300Y91440D01*
X393700Y193040D02*
X393700Y203200D01*
X393700Y193040D02*
X495300Y91440D01*
D25*
X393700Y203200D03*
X486410Y220980D03*
D26*
X491490Y215900D02*
X723900Y215900D01*
X491490Y215900D02*
X486410Y220980D01*
X723900Y215900D02*
X736600Y228600D01*
D25*
X736600Y228600D03*
X269240Y749300D03*
X308610Y770890D03*
D26*
X296146Y758426D01*
X278366Y758426D02*
X269240Y749300D01*
X278366Y758426D02*
X296146Y758426D01*
D25*
X260350Y749300D03*
X300990Y770890D03*
D26*
X273050Y762000D02*
X260350Y749300D01*
X273050Y762000D02*
X292100Y762000D01*
X300990Y770890D01*
D29*
X256540Y762000D03*
X292100Y889000D03*
D30*
X283210Y788670D02*
X256540Y762000D01*
X283210Y880110D02*
X292100Y889000D01*
X283210Y880110D02*
X283210Y788670D01*
D23*
X243840Y763270D03*
D30*
X243840Y826770D01*
X247650Y830580D01*
D23*
X247650Y830580D03*
D25*
X233680Y673100D03*
D26*
X233680Y628650D01*
X236220Y626110D01*
D25*
X236220Y626110D03*
X243840Y675640D03*
D26*
X243840Y673100D01*
X237254Y640316D02*
X240030Y637540D01*
X237254Y666514D02*
X243840Y673100D01*
X237254Y666514D02*
X237254Y640316D01*
D25*
X240030Y637540D03*
X204470Y646430D03*
D26*
X184150Y646430D01*
X157480Y754380D02*
X165100Y762000D01*
X157480Y754380D02*
X157480Y673100D01*
X184150Y646430D01*
D25*
X165100Y762000D03*
X256540Y664210D03*
X370840Y792480D03*
D26*
X342900Y764540D01*
X293370Y722630D02*
X275590Y722630D01*
X250190Y697230D01*
X250190Y666750D02*
X252730Y664210D01*
X256540Y664210D01*
X250190Y666750D02*
X250190Y697230D01*
X293370Y722630D02*
X313690Y742950D01*
X342900Y750570D02*
X342900Y764540D01*
X335280Y742950D02*
X313690Y742950D01*
X335280Y742950D02*
X342900Y750570D01*
D27*
X355600Y520700D03*
D28*
X355600Y508000D01*
X313020Y465420D02*
X313020Y427990D01*
X313020Y465420D02*
X355600Y508000D01*
D27*
X215900Y381000D03*
D24*
X313020Y419100D02*
X313020Y427990D01*
X313020Y419100D02*
X286350Y392430D01*
X227330Y392430D01*
X215900Y381000D01*
D27*
X425450Y388620D03*
D24*
X352390Y388620D01*
X313020Y427990D01*
M02*
