G04 EAGLE Gerber RS-274X export*
G75*
%MOMM*%
%FSLAX34Y34*%
%LPD*%
%IN*%
%IPPOS*%
%AMOC8*
5,1,8,0,0,1.08239X$1,22.5*%
G01*
%ADD10C,0.254000*%


D10*
X0Y38100D02*
X851410Y38100D01*
X851410Y1003200D01*
X0Y1003200D01*
X0Y38100D01*
X17700Y990319D02*
X17637Y989761D01*
X17512Y989214D01*
X17327Y988684D01*
X17083Y988178D01*
X16784Y987702D01*
X16434Y987263D01*
X16037Y986866D01*
X15598Y986516D01*
X15122Y986217D01*
X14616Y985973D01*
X14086Y985788D01*
X13539Y985663D01*
X12981Y985600D01*
X12419Y985600D01*
X11861Y985663D01*
X11314Y985788D01*
X10784Y985973D01*
X10278Y986217D01*
X9802Y986516D01*
X9363Y986866D01*
X8966Y987263D01*
X8616Y987702D01*
X8317Y988178D01*
X8073Y988684D01*
X7888Y989214D01*
X7763Y989761D01*
X7700Y990319D01*
X7700Y990881D01*
X7763Y991439D01*
X7888Y991986D01*
X8073Y992516D01*
X8317Y993022D01*
X8616Y993498D01*
X8966Y993937D01*
X9363Y994334D01*
X9802Y994684D01*
X10278Y994983D01*
X10784Y995227D01*
X11314Y995412D01*
X11861Y995537D01*
X12419Y995600D01*
X12981Y995600D01*
X13539Y995537D01*
X14086Y995412D01*
X14616Y995227D01*
X15122Y994983D01*
X15598Y994684D01*
X16037Y994334D01*
X16434Y993937D01*
X16784Y993498D01*
X17083Y993022D01*
X17327Y992516D01*
X17512Y991986D01*
X17637Y991439D01*
X17700Y990881D01*
X17700Y990319D01*
X843200Y990319D02*
X843137Y989761D01*
X843012Y989214D01*
X842827Y988684D01*
X842583Y988178D01*
X842284Y987702D01*
X841934Y987263D01*
X841537Y986866D01*
X841098Y986516D01*
X840622Y986217D01*
X840116Y985973D01*
X839586Y985788D01*
X839039Y985663D01*
X838481Y985600D01*
X837919Y985600D01*
X837361Y985663D01*
X836814Y985788D01*
X836284Y985973D01*
X835778Y986217D01*
X835302Y986516D01*
X834863Y986866D01*
X834466Y987263D01*
X834116Y987702D01*
X833817Y988178D01*
X833573Y988684D01*
X833388Y989214D01*
X833263Y989761D01*
X833200Y990319D01*
X833200Y990881D01*
X833263Y991439D01*
X833388Y991986D01*
X833573Y992516D01*
X833817Y993022D01*
X834116Y993498D01*
X834466Y993937D01*
X834863Y994334D01*
X835302Y994684D01*
X835778Y994983D01*
X836284Y995227D01*
X836814Y995412D01*
X837361Y995537D01*
X837919Y995600D01*
X838481Y995600D01*
X839039Y995537D01*
X839586Y995412D01*
X840116Y995227D01*
X840622Y994983D01*
X841098Y994684D01*
X841537Y994334D01*
X841934Y993937D01*
X842284Y993498D01*
X842583Y993022D01*
X842827Y992516D01*
X843012Y991986D01*
X843137Y991439D01*
X843200Y990881D01*
X843200Y990319D01*
X843200Y50519D02*
X843137Y49961D01*
X843012Y49414D01*
X842827Y48884D01*
X842583Y48378D01*
X842284Y47902D01*
X841934Y47463D01*
X841537Y47066D01*
X841098Y46716D01*
X840622Y46417D01*
X840116Y46173D01*
X839586Y45988D01*
X839039Y45863D01*
X838481Y45800D01*
X837919Y45800D01*
X837361Y45863D01*
X836814Y45988D01*
X836284Y46173D01*
X835778Y46417D01*
X835302Y46716D01*
X834863Y47066D01*
X834466Y47463D01*
X834116Y47902D01*
X833817Y48378D01*
X833573Y48884D01*
X833388Y49414D01*
X833263Y49961D01*
X833200Y50519D01*
X833200Y51081D01*
X833263Y51639D01*
X833388Y52186D01*
X833573Y52716D01*
X833817Y53222D01*
X834116Y53698D01*
X834466Y54137D01*
X834863Y54534D01*
X835302Y54884D01*
X835778Y55183D01*
X836284Y55427D01*
X836814Y55612D01*
X837361Y55737D01*
X837919Y55800D01*
X838481Y55800D01*
X839039Y55737D01*
X839586Y55612D01*
X840116Y55427D01*
X840622Y55183D01*
X841098Y54884D01*
X841537Y54534D01*
X841934Y54137D01*
X842284Y53698D01*
X842583Y53222D01*
X842827Y52716D01*
X843012Y52186D01*
X843137Y51639D01*
X843200Y51081D01*
X843200Y50519D01*
X17700Y50519D02*
X17637Y49961D01*
X17512Y49414D01*
X17327Y48884D01*
X17083Y48378D01*
X16784Y47902D01*
X16434Y47463D01*
X16037Y47066D01*
X15598Y46716D01*
X15122Y46417D01*
X14616Y46173D01*
X14086Y45988D01*
X13539Y45863D01*
X12981Y45800D01*
X12419Y45800D01*
X11861Y45863D01*
X11314Y45988D01*
X10784Y46173D01*
X10278Y46417D01*
X9802Y46716D01*
X9363Y47066D01*
X8966Y47463D01*
X8616Y47902D01*
X8317Y48378D01*
X8073Y48884D01*
X7888Y49414D01*
X7763Y49961D01*
X7700Y50519D01*
X7700Y51081D01*
X7763Y51639D01*
X7888Y52186D01*
X8073Y52716D01*
X8317Y53222D01*
X8616Y53698D01*
X8966Y54137D01*
X9363Y54534D01*
X9802Y54884D01*
X10278Y55183D01*
X10784Y55427D01*
X11314Y55612D01*
X11861Y55737D01*
X12419Y55800D01*
X12981Y55800D01*
X13539Y55737D01*
X14086Y55612D01*
X14616Y55427D01*
X15122Y55183D01*
X15598Y54884D01*
X16037Y54534D01*
X16434Y54137D01*
X16784Y53698D01*
X17083Y53222D01*
X17327Y52716D01*
X17512Y52186D01*
X17637Y51639D01*
X17700Y51081D01*
X17700Y50519D01*
M02*
