G04 EAGLE Gerber RS-274X export*
G75*
%MOMM*%
%FSLAX34Y34*%
%LPD*%
%INSoldermask Top*%
%IPPOS*%
%AMOC8*
5,1,8,0,0,1.08239X$1,22.5*%
G01*
%ADD10C,1.101600*%
%ADD11C,1.320800*%
%ADD12R,2.301600X0.701600*%
%ADD13C,1.625600*%
%ADD14R,1.601600X1.001600*%
%ADD15R,1.001600X1.601600*%
%ADD16R,1.001600X1.001600*%
%ADD17R,1.101600X1.201600*%
%ADD18R,1.201600X1.101600*%
%ADD19R,0.951600X0.381600*%
%ADD20R,0.381600X0.951600*%
%ADD21R,3.201600X2.151600*%
%ADD22P,5.333585X8X112.500000*%
%ADD23R,2.801600X1.901600*%
%ADD24R,1.904600X1.701600*%
%ADD25R,1.901600X1.701600*%
%ADD26R,1.701600X1.901600*%
%ADD27R,1.501600X1.101600*%
%ADD28R,1.601600X1.401600*%
%ADD29R,3.051600X3.601600*%
%ADD30R,1.401600X1.601600*%
%ADD31P,1.429621X8X22.500000*%
%ADD32R,1.701600X1.904600*%
%ADD33C,2.501900*%
%ADD34C,2.201600*%
%ADD35R,1.473200X1.473200*%
%ADD36C,1.473200*%
%ADD37R,1.701600X1.501600*%
%ADD38R,2.801600X1.701600*%
%ADD39R,1.851600X1.051600*%
%ADD40R,1.851600X3.301600*%
%ADD41R,2.301600X1.651600*%
%ADD42R,1.501600X2.301600*%
%ADD43R,1.101600X0.801600*%
%ADD44R,2.186600X2.186600*%
%ADD45C,2.186600*%
%ADD46R,1.951600X1.301600*%
%ADD47R,1.301600X1.951600*%
%ADD48C,2.082800*%
%ADD49R,1.626600X0.751600*%
%ADD50R,2.501600X3.201600*%
%ADD51R,3.301600X2.101600*%
%ADD52R,1.401600X2.101600*%
%ADD53R,2.101600X1.701600*%
%ADD54C,0.926600*%


D10*
X12700Y990600D03*
X838200Y990600D03*
X838200Y50800D03*
X12700Y50800D03*
D11*
X749300Y451104D02*
X749300Y463296D01*
X749300Y387096D02*
X749300Y374904D01*
X723900Y374904D02*
X723900Y387096D01*
X723900Y451104D02*
X723900Y463296D01*
D12*
X634400Y283210D03*
X686400Y283210D03*
X634400Y295910D03*
X634400Y270510D03*
X634400Y257810D03*
X686400Y295910D03*
X686400Y270510D03*
X686400Y257810D03*
D13*
X45720Y482600D02*
X30480Y482600D01*
X30480Y508000D02*
X45720Y508000D01*
X45720Y533400D02*
X30480Y533400D01*
D14*
X242700Y338100D03*
X242700Y325400D03*
X242700Y312700D03*
X242700Y300000D03*
X242700Y287300D03*
X242700Y274600D03*
X242700Y261900D03*
X242700Y249200D03*
X242700Y236500D03*
X242700Y223800D03*
X242700Y211100D03*
X242700Y198400D03*
X242700Y185700D03*
X242700Y173000D03*
D15*
X273050Y160500D03*
X285750Y160500D03*
X298450Y160500D03*
X311150Y160500D03*
X323850Y160500D03*
X336550Y160500D03*
X349250Y160500D03*
X361950Y160500D03*
X374650Y160500D03*
X387350Y160500D03*
D14*
X417700Y173000D03*
X417700Y185700D03*
X417700Y198400D03*
X417700Y211100D03*
X417700Y223800D03*
X417700Y236500D03*
X417700Y249200D03*
X417700Y261900D03*
X417700Y274600D03*
X417700Y287300D03*
X417700Y300000D03*
X417700Y312700D03*
X417700Y325400D03*
X417700Y338100D03*
D16*
X315200Y264700D03*
X301200Y264700D03*
X329200Y264700D03*
X301200Y250700D03*
X315200Y250700D03*
X329200Y250700D03*
X329200Y278700D03*
X315200Y278700D03*
X301200Y278700D03*
D17*
X449970Y195580D03*
X466970Y195580D03*
X183270Y303530D03*
X200270Y303530D03*
D18*
X449970Y168910D03*
X466970Y168910D03*
X165980Y303530D03*
X148980Y303530D03*
X183270Y326390D03*
X200270Y326390D03*
X148980Y326390D03*
X165980Y326390D03*
D19*
X283790Y718700D03*
D20*
X279040Y728450D03*
X274040Y728450D03*
X269040Y728450D03*
X264040Y728450D03*
X259040Y728450D03*
X254040Y728450D03*
X249040Y728450D03*
X244040Y728450D03*
X239040Y728450D03*
X234040Y728450D03*
D19*
X229290Y718700D03*
X229290Y703700D03*
D20*
X234040Y693950D03*
X239040Y693950D03*
X244040Y693950D03*
X249040Y693950D03*
X254040Y693950D03*
X259040Y693950D03*
X264040Y693950D03*
X269040Y693950D03*
X274040Y693950D03*
X279040Y693950D03*
D19*
X283790Y703700D03*
D21*
X256540Y711200D03*
D22*
X58928Y876300D03*
X88900Y926338D03*
X28956Y926338D03*
D23*
X114300Y828900D03*
X114300Y872900D03*
D24*
X215900Y784610D03*
X215900Y813050D03*
D25*
X257810Y786100D03*
X257810Y814100D03*
D26*
X52100Y800100D03*
X24100Y800100D03*
D27*
X176100Y838200D03*
X154100Y828700D03*
X154100Y847700D03*
D18*
X152400Y778900D03*
X152400Y795900D03*
X177800Y795900D03*
X177800Y778900D03*
X304800Y905900D03*
X304800Y922900D03*
X266700Y842400D03*
X266700Y859400D03*
D17*
X266700Y922900D03*
X266700Y905900D03*
D18*
X228600Y905900D03*
X228600Y922900D03*
D17*
X317500Y804300D03*
X317500Y821300D03*
X292100Y821300D03*
X292100Y804300D03*
D25*
X326390Y756950D03*
X326390Y728950D03*
D18*
X381000Y821300D03*
X381000Y804300D03*
D17*
X372500Y641350D03*
X389500Y641350D03*
D18*
X348860Y642620D03*
X331860Y642620D03*
X281060Y631190D03*
X298060Y631190D03*
D25*
X204470Y581690D03*
X204470Y553690D03*
X166370Y581690D03*
X166370Y553690D03*
D28*
X128270Y577190D03*
X128270Y558190D03*
D29*
X372800Y745490D03*
X427300Y745490D03*
D18*
X371720Y679450D03*
X354720Y679450D03*
D17*
X321700Y679450D03*
X338700Y679450D03*
D26*
X445800Y952500D03*
X417800Y952500D03*
D28*
X190500Y733400D03*
X190500Y714400D03*
D18*
X165100Y677300D03*
X165100Y694300D03*
X190500Y677300D03*
X190500Y694300D03*
X190500Y656200D03*
X190500Y639200D03*
X218440Y639200D03*
X218440Y656200D03*
X165100Y639200D03*
X165100Y656200D03*
D30*
X280060Y662940D03*
X299060Y662940D03*
D17*
X127000Y656200D03*
X127000Y639200D03*
D18*
X127000Y694300D03*
X127000Y677300D03*
X127000Y732400D03*
X127000Y715400D03*
X152400Y715400D03*
X152400Y732400D03*
D17*
X728980Y283600D03*
X728980Y300600D03*
D24*
X162560Y446790D03*
X162560Y475230D03*
D31*
X584200Y482600D03*
X685800Y482600D03*
D32*
X692400Y201930D03*
X663960Y201930D03*
X663960Y165100D03*
X692400Y165100D03*
D18*
X670950Y127000D03*
X687950Y127000D03*
X686680Y232410D03*
X669680Y232410D03*
D24*
X660400Y407920D03*
X660400Y379480D03*
D33*
X291402Y482600D02*
X267399Y482600D01*
X368999Y482600D02*
X393002Y482600D01*
D34*
X787400Y812800D03*
X787400Y887800D03*
D35*
X647700Y914400D03*
D36*
X647700Y859536D03*
D17*
X184540Y232410D03*
X201540Y232410D03*
X184540Y199390D03*
X201540Y199390D03*
D37*
X157240Y201930D03*
X127240Y201930D03*
X157240Y179070D03*
X127240Y179070D03*
D17*
X466970Y137160D03*
X449970Y137160D03*
X448700Y229870D03*
X465700Y229870D03*
X451240Y306070D03*
X468240Y306070D03*
X451240Y280670D03*
X468240Y280670D03*
D38*
X520700Y826800D03*
X520700Y798800D03*
D17*
X603250Y800490D03*
X603250Y817490D03*
X536820Y668020D03*
X519820Y668020D03*
D39*
X564900Y573900D03*
X564900Y596900D03*
X564900Y619900D03*
D40*
X501900Y596900D03*
D41*
X553900Y533400D03*
X512900Y533400D03*
D42*
X609600Y574800D03*
X609600Y542800D03*
X444500Y574800D03*
X444500Y542800D03*
D24*
X800100Y522220D03*
X800100Y493780D03*
D43*
X137860Y419710D03*
X137860Y400710D03*
X161860Y410210D03*
X508700Y155550D03*
X508700Y136550D03*
X532700Y146050D03*
D24*
X584200Y357120D03*
X584200Y328680D03*
D18*
X241300Y567300D03*
X241300Y550300D03*
D13*
X198120Y901700D02*
X182880Y901700D01*
X182880Y927100D02*
X198120Y927100D01*
X198120Y952500D02*
X182880Y952500D01*
D44*
X444500Y863600D03*
D45*
X469900Y863600D03*
X495300Y863600D03*
D13*
X363220Y901700D02*
X347980Y901700D01*
X347980Y927100D02*
X363220Y927100D01*
X363220Y952500D02*
X347980Y952500D01*
D18*
X349250Y821300D03*
X349250Y804300D03*
D46*
X427990Y671590D03*
X427990Y641590D03*
D24*
X88900Y475230D03*
X88900Y446790D03*
X125730Y446790D03*
X125730Y475230D03*
X762000Y493780D03*
X762000Y522220D03*
X88900Y390910D03*
X88900Y419350D03*
D47*
X416800Y927100D03*
X446800Y927100D03*
D13*
X96520Y292300D02*
X81280Y292300D01*
X81280Y317300D02*
X96520Y317300D01*
X394900Y83820D02*
X394900Y68580D01*
X419900Y68580D02*
X419900Y83820D01*
X519900Y83820D02*
X519900Y68580D01*
X444900Y68580D02*
X444900Y83820D01*
X469900Y83820D02*
X469900Y68580D01*
X494900Y68580D02*
X494900Y83820D01*
X544900Y83820D02*
X544900Y68580D01*
X569900Y68580D02*
X569900Y83820D01*
X369900Y83820D02*
X369900Y68580D01*
X96520Y152600D02*
X81280Y152600D01*
X81280Y127600D02*
X96520Y127600D01*
X96520Y177600D02*
X81280Y177600D01*
X81280Y202600D02*
X96520Y202600D01*
X228600Y83820D02*
X228600Y68580D01*
X178600Y68580D02*
X178600Y83820D01*
X203600Y83820D02*
X203600Y68580D01*
X253600Y68580D02*
X253600Y83820D01*
X278600Y83820D02*
X278600Y68580D01*
X338020Y420370D02*
X338020Y435610D01*
X413020Y435610D02*
X413020Y420370D01*
X388020Y420370D02*
X388020Y435610D01*
X363020Y435610D02*
X363020Y420370D01*
X313020Y420370D02*
X313020Y435610D01*
X288020Y435610D02*
X288020Y420370D01*
D48*
X48006Y748284D02*
X28194Y748284D01*
X28194Y697992D02*
X48006Y697992D01*
X48006Y648208D02*
X28194Y648208D01*
X28194Y597916D02*
X48006Y597916D01*
D49*
X577400Y764540D03*
X577400Y751840D03*
X577400Y739140D03*
X577400Y726440D03*
X631640Y726440D03*
X631640Y739140D03*
X631640Y751840D03*
X631640Y764540D03*
D50*
X604520Y745490D03*
D38*
X558800Y826800D03*
X558800Y798800D03*
D13*
X528320Y747830D02*
X513080Y747830D01*
X513080Y722830D02*
X528320Y722830D01*
D18*
X659520Y751840D03*
X676520Y751840D03*
X629920Y677300D03*
X629920Y694300D03*
X571500Y694300D03*
X571500Y677300D03*
D17*
X600710Y694300D03*
X600710Y677300D03*
X629920Y660010D03*
X629920Y643010D03*
X600710Y660010D03*
X600710Y643010D03*
D26*
X701070Y589280D03*
X673070Y589280D03*
X702340Y554990D03*
X674340Y554990D03*
D51*
X703580Y710830D03*
X703580Y632830D03*
D52*
X647900Y328400D03*
D53*
X660400Y357400D03*
D52*
X672900Y328400D03*
D17*
X635000Y402200D03*
X635000Y385200D03*
D54*
X316230Y662940D03*
X292100Y685800D03*
X660400Y508000D03*
M02*
