M48
;GenerationSoftware,Autodesk,EAGLE,9.6.2*%
;CreationDate,2024-02-01T13:48:36Z*%
FMAT,2
ICI,OFF
METRIC,TZ,000.000
T14C0.300
T13C0.350
T12C0.400
T11C0.450
T10C0.550
T9C0.813
T8C0.864
T7C1.000
T6C1.016
T5C1.321
T4C1.390
T3C1.400
T2C1.600
T1C3.302
%
G90
M71
T1
X8890Y92634
X2896Y92634
X5893Y87630
T2
X38100Y48260
X27940Y48260
T3
X78740Y81280
X78740Y88780
T4
X49530Y86360
X46990Y86360
X44450Y86360
T5
X3810Y69799
X3810Y74828
X3810Y59792
X3810Y64821
T6
X27860Y7620
X25360Y7620
X17860Y7620
X22860Y7620
X8890Y20260
X8890Y17760
X8890Y12760
X8890Y15260
X36990Y7620
X56990Y7620
X54490Y7620
X49490Y7620
X46990Y7620
X44490Y7620
X51990Y7620
X41990Y7620
X39490Y7620
X8890Y31730
X8890Y29230
X35560Y95250
X35560Y92710
X35560Y90170
X28802Y42799
X52070Y72283
X19050Y95250
X19050Y92710
X19050Y90170
X52070Y74783
X20360Y7620
X31302Y42799
X36302Y42799
X38802Y42799
X41302Y42799
X33802Y42799
X3810Y53340
X3810Y50800
X3810Y48260
T7
X1270Y5080
X83820Y5080
X1270Y99060
X83820Y99060
T8
X64770Y91440
X64770Y85954
T9
X68580Y48260
X74930Y45720
X74930Y38100
X72390Y38100
X72390Y45720
X58420Y48260
T10
X31623Y66294
X29210Y68580
X66040Y50800
T11
X35560Y52070
X42545Y38862
X21590Y38100
X65532Y43942
X49276Y45339
X21717Y28829
X26670Y30480
T12
X29210Y88900
X25654Y76200
T13
X8890Y36830
X29210Y31750
X26670Y33020
X39370Y34290
X35560Y33020
X20828Y74422
X19558Y78359
X22098Y62230
X24765Y83058
X24384Y76327
X31750Y63500
X60325Y62992
X64389Y65024
X20320Y68580
T14
X37084Y79248
X25654Y66421
X16510Y76200
X20447Y64643
X24003Y63754
X23622Y62611
X24384Y67564
X23368Y67310
X30099Y77089
X26035Y74930
X30861Y77089
X26924Y74930
X39370Y20320
X21590Y26670
X48641Y22098
X73660Y22860
X24130Y52070
X22860Y58420
X14605Y75057
X29210Y22860
X27940Y26670
X20320Y17780
X26670Y29210
X11430Y53340
X10160Y63500
X38100Y28702
X38735Y30607
X39370Y22860
M30